<svg xmlns="http://www.w3.org/2000/svg" width="57" height="58" fill="none"><circle cx="29" cy="29" r="28" fill="#fff"/><circle cx="29" cy="29" r="27.5" stroke="#000" stroke-opacity=".08"/><path stroke="#0381FF" d="M39.715 54.869A28 28 0 1 1 29 1"/><path fill="#0381FF" d="M17 26.333A1.333 1.333 0 0 0 18.333 25v-5.334a1.333 1.333 0 0 1 1.334-1.333H25a1.333 1.333 0 0 0 0-2.666h-5.333a4 4 0 0 0-4 4V25A1.333 1.333 0 0 0 17 26.333ZM38.333 15.666H33a1.333 1.333 0 0 0 0 2.667h5.333a1.333 1.333 0 0 1 1.334 1.334V25a1.333 1.333 0 1 0 2.666 0v-5.334a4 4 0 0 0-4-4ZM41 31.666A1.333 1.333 0 0 0 39.667 33v5.333a1.333 1.333 0 0 1-1.334 1.334H33a1.333 1.333 0 0 0 0 2.666h5.333a4 4 0 0 0 4-4V33A1.334 1.334 0 0 0 41 31.666ZM25 39.666h-5.333a1.334 1.334 0 0 1-1.334-1.333V33a1.334 1.334 0 0 0-2.666 0v5.333a4 4 0 0 0 4 4H25a1.333 1.333 0 0 0 0-2.666Z"/><path fill="#0381FF" d="M34.333 21H23.667A2.667 2.667 0 0 0 21 23.667v10.666A2.667 2.667 0 0 0 23.667 37h10.666A2.667 2.667 0 0 0 37 34.333V23.667A2.667 2.667 0 0 0 34.333 21Z"/></svg>