<svg xmlns="http://www.w3.org/2000/svg" width="57" height="58" fill="none"><circle cx="29" cy="29" r="27.5" stroke="#000" stroke-opacity=".08"/><path stroke="#0381FF" d="M39.715 54.869A28 28 0 1 1 29 1"/><path fill="#0381FF" d="M43 34a9.033 9.033 0 0 1-11.997 8.475 10.944 10.944 0 0 0 3.958-9.24 11.055 11.055 0 0 0 4.624-6.28A8.981 8.981 0 0 1 43 34ZM32.988 34.24a8.997 8.997 0 1 1-14.573-7.284 11.052 11.052 0 0 0 14.573 7.284Z"/><path fill="#0381FF" d="M20 24a9 9 0 1 1 9 9 9.01 9.01 0 0 1-9-9Z"/></svg>