<svg xmlns="http://www.w3.org/2000/svg" width="56" height="56" fill="none"><circle cx="28" cy="28" r="27.5" stroke="#000" stroke-opacity=".08"/><g fill="#666" clip-path="url(#a)"><path d="m36.848 19.469-4.989-4.989v4.989h4.989Z"/><path d="M29.234 29.094a.82.82 0 0 1 .82-.82h7.274v-7.165H31.04a.82.82 0 0 1-.82-.82V14H19.008A3.011 3.011 0 0 0 16 17.008v21.984A3.011 3.011 0 0 0 19.008 42H34.32a3.011 3.011 0 0 0 3.008-3.008v-9.078h-7.273a.82.82 0 0 1-.82-.82Zm-9.132-5.742h9.296a.82.82 0 1 1 0 1.64h-9.296a.82.82 0 1 1 0-1.64Zm0 3.28h7.109a.82.82 0 1 1 0 1.641H20.1a.82.82 0 1 1 0-1.64Zm0 3.282h7.109a.82.82 0 1 1 0 1.64H20.1a.82.82 0 1 1 0-1.64Zm9.296 4.922h-9.296a.82.82 0 1 1 0-1.64h9.296a.82.82 0 1 1 0 1.64ZM43.76 28.514l-3.282-3.281a.82.82 0 1 0-1.16 1.16l1.881 1.88h-3.87v1.641h3.87l-1.88 1.881a.82.82 0 1 0 1.16 1.16l3.28-3.281a.82.82 0 0 0 0-1.16Z"/></g><defs><clipPath id="a"><path fill="#fff" d="M16 14h28v28H16z"/></clipPath></defs></svg>