<svg xmlns="http://www.w3.org/2000/svg" width="57" height="58" fill="none"><circle cx="29" cy="29" r="27.5" stroke="#000" stroke-opacity=".08"/><circle cx="29" cy="29" r="28" fill="#fff"/><circle cx="29" cy="29" r="27.5" stroke="#000" stroke-opacity=".08"/><path stroke="#0381FF" d="M39.715 54.869A28 28 0 1 1 29 1"/><g fill="#0381FF" clip-path="url(#a)"><path d="m37.848 20.469-4.989-4.989v4.989h4.989Z"/><path d="M30.234 30.094a.82.82 0 0 1 .82-.82h7.274v-7.165H32.04a.82.82 0 0 1-.82-.82V15H20.008A3.011 3.011 0 0 0 17 18.008v21.984A3.011 3.011 0 0 0 20.008 43H35.32a3.011 3.011 0 0 0 3.008-3.008v-9.078h-7.273a.82.82 0 0 1-.82-.82Zm-9.132-5.742h9.296a.82.82 0 1 1 0 1.64h-9.296a.82.82 0 1 1 0-1.64Zm0 3.28h7.109a.82.82 0 1 1 0 1.641H21.1a.82.82 0 1 1 0-1.64Zm0 3.282h7.109a.82.82 0 1 1 0 1.64H21.1a.82.82 0 1 1 0-1.64Zm9.296 4.922h-9.296a.82.82 0 1 1 0-1.64h9.296a.82.82 0 1 1 0 1.64ZM44.76 29.514l-3.282-3.281a.82.82 0 1 0-1.16 1.16l1.881 1.88h-3.87v1.641h3.87l-1.88 1.881a.82.82 0 1 0 1.16 1.16l3.28-3.281a.82.82 0 0 0 0-1.16Z"/></g><defs><clipPath id="a"><path fill="#fff" d="M17 15h28v28H17z"/></clipPath></defs></svg>